<mxfile host="app.diagrams.net" modified="2023-04-24T12:37:49.424Z" agent="Mozilla/5.0 (Windows NT 10.0; Win64; x64; rv:102.0) Gecko/20100101 Firefox/102.0" etag="SqRFiAnCQe0L5qk5wEHa" version="21.2.1" type="device">
  <diagram name="Page-1" id="13e1069c-82ec-6db2-03f1-153e76fe0fe0">
    <mxGraphModel dx="1706" dy="1044" grid="1" gridSize="10" guides="1" tooltips="1" connect="1" arrows="1" fold="1" page="1" pageScale="1" pageWidth="1100" pageHeight="850" background="none" math="0" shadow="0">
      <root>
        <mxCell id="0" />
        <mxCell id="1" parent="0" />
        <mxCell id="7baba1c4bc27f4b0-2" value="&lt;div style=&quot;background-color: rgb(255, 255, 255); color: rgb(8, 8, 8);&quot;&gt;&lt;font style=&quot;font-size: 11px;&quot; face=&quot;Verdana&quot;&gt;Discovery&lt;/font&gt;&lt;/div&gt;&lt;div style=&quot;background-color: rgb(255, 255, 255); color: rgb(8, 8, 8);&quot;&gt;&lt;font style=&quot;font-size: 11px;&quot; face=&quot;Verdana&quot;&gt;EndpointFinder&lt;/font&gt;&lt;/div&gt;&lt;div style=&quot;background-color: rgb(255, 255, 255); color: rgb(8, 8, 8);&quot;&gt;&lt;font style=&quot;font-size: 11px;&quot; face=&quot;Verdana&quot;&gt;ApiDelegate&lt;/font&gt;&lt;/div&gt;" style="shape=umlLifeline;perimeter=lifelinePerimeter;whiteSpace=wrap;html=1;container=0;collapsible=0;recursiveResize=0;outlineConnect=0;rounded=1;shadow=0;comic=0;labelBackgroundColor=none;strokeWidth=1;fontFamily=Verdana;fontSize=12;align=center;movable=1;resizable=1;rotatable=1;deletable=1;editable=1;locked=0;connectable=1;" parent="1" vertex="1">
          <mxGeometry x="260" y="80" width="100" height="320" as="geometry" />
        </mxCell>
        <mxCell id="_Sf8xZr1CFAmRgoJj1tJ-1" value="&lt;font style=&quot;font-size: 11px;&quot; face=&quot;Verdana&quot;&gt;Discovery&lt;/font&gt;&lt;div style=&quot;background-color: rgb(255, 255, 255); color: rgb(8, 8, 8);&quot;&gt;&lt;font style=&quot;font-size: 11px;&quot; face=&quot;Verdana&quot;&gt;EndpointFinder&lt;/font&gt;&lt;/div&gt;&lt;div style=&quot;background-color: rgb(255, 255, 255); color: rgb(8, 8, 8);&quot;&gt;&lt;font style=&quot;font-size: 11px;&quot; face=&quot;Verdana&quot;&gt;ApiDelegate&lt;/font&gt;&lt;/div&gt;" style="rounded=1;whiteSpace=wrap;html=1;" vertex="1" parent="1">
          <mxGeometry x="240" y="70" width="120" height="60" as="geometry" />
        </mxCell>
        <mxCell id="7baba1c4bc27f4b0-3" value="&lt;div style=&quot;background-color: rgb(255, 255, 255); color: rgb(8, 8, 8);&quot;&gt;&lt;font style=&quot;font-size: 11px;&quot; face=&quot;Verdana&quot;&gt;DiscoveryFinder&lt;/font&gt;&lt;/div&gt;&lt;div style=&quot;background-color: rgb(255, 255, 255); color: rgb(8, 8, 8);&quot;&gt;&lt;font style=&quot;font-size: 11px;&quot; face=&quot;Verdana&quot;&gt;Service&lt;/font&gt;&lt;/div&gt;" style="shape=umlLifeline;perimeter=lifelinePerimeter;whiteSpace=wrap;html=1;container=1;collapsible=0;recursiveResize=0;outlineConnect=0;rounded=1;shadow=0;comic=0;labelBackgroundColor=none;strokeWidth=1;fontFamily=Verdana;fontSize=12;align=center;" parent="1" vertex="1">
          <mxGeometry x="400" y="80" width="100" height="270" as="geometry" />
        </mxCell>
        <mxCell id="7baba1c4bc27f4b0-13" value="" style="html=1;points=[];perimeter=orthogonalPerimeter;rounded=0;shadow=0;comic=0;labelBackgroundColor=none;strokeWidth=1;fontFamily=Verdana;fontSize=12;align=center;" parent="7baba1c4bc27f4b0-3" vertex="1">
          <mxGeometry x="45" y="130" width="10" height="140" as="geometry" />
        </mxCell>
        <mxCell id="7baba1c4bc27f4b0-4" value="&lt;div style=&quot;background-color: rgb(255, 255, 255); color: rgb(8, 8, 8); font-size: 11px;&quot;&gt;&lt;font style=&quot;font-size: 11px;&quot; face=&quot;Verdana&quot;&gt;UuidUtils&lt;/font&gt;&lt;/div&gt;" style="shape=umlLifeline;perimeter=lifelinePerimeter;whiteSpace=wrap;html=1;container=1;collapsible=0;recursiveResize=0;outlineConnect=0;rounded=1;shadow=0;comic=0;labelBackgroundColor=none;strokeWidth=1;fontFamily=Verdana;fontSize=12;align=center;" parent="1" vertex="1">
          <mxGeometry x="540" y="80" width="100" height="160" as="geometry" />
        </mxCell>
        <mxCell id="7baba1c4bc27f4b0-8" value="ConsumerApp" style="shape=umlLifeline;perimeter=lifelinePerimeter;whiteSpace=wrap;html=1;container=1;collapsible=0;recursiveResize=0;outlineConnect=0;rounded=1;shadow=0;comic=0;labelBackgroundColor=none;strokeWidth=1;fontFamily=Verdana;fontSize=12;align=center;" parent="1" vertex="1">
          <mxGeometry x="100" y="80" width="100" height="320" as="geometry" />
        </mxCell>
        <mxCell id="7baba1c4bc27f4b0-9" value="" style="html=1;points=[];perimeter=orthogonalPerimeter;rounded=0;shadow=0;comic=0;labelBackgroundColor=none;strokeWidth=1;fontFamily=Verdana;fontSize=12;align=center;" parent="7baba1c4bc27f4b0-8" vertex="1">
          <mxGeometry x="45" y="100" width="10" height="220" as="geometry" />
        </mxCell>
        <mxCell id="7baba1c4bc27f4b0-16" value="" style="html=1;points=[];perimeter=orthogonalPerimeter;rounded=0;shadow=0;comic=0;labelBackgroundColor=none;strokeWidth=1;fontFamily=Verdana;fontSize=12;align=center;" parent="1" vertex="1">
          <mxGeometry x="585" y="220" width="10" height="20" as="geometry" />
        </mxCell>
        <mxCell id="7baba1c4bc27f4b0-27" value="&lt;div style=&quot;background-color: rgb(255, 255, 255); color: rgb(8, 8, 8); font-size: 11px;&quot;&gt;&lt;font style=&quot;font-size: 11px;&quot; face=&quot;Verdana&quot;&gt;ResponseEntity&amp;lt;Void&amp;gt;&lt;/font&gt;&lt;/div&gt;" style="html=1;verticalAlign=bottom;endArrow=open;dashed=1;endSize=8;labelBackgroundColor=none;fontFamily=Verdana;fontSize=12;" parent="1" edge="1">
          <mxGeometry x="0.0068" relative="1" as="geometry">
            <mxPoint x="157" y="395.5" as="targetPoint" />
            <mxPoint x="302" y="397" as="sourcePoint" />
            <mxPoint as="offset" />
          </mxGeometry>
        </mxCell>
        <mxCell id="7baba1c4bc27f4b0-11" value="&lt;font style=&quot;font-size: 11px;&quot; face=&quot;Verdana&quot;&gt;post &lt;br&gt;&lt;/font&gt;&lt;div style=&quot;background-color: rgb(255, 255, 255); color: rgb(8, 8, 8); font-size: 11px;&quot;&gt;&lt;font style=&quot;font-size: 11px;&quot; face=&quot;Verdana&quot;&gt;/api/v1.0/administration&lt;/font&gt;&lt;/div&gt;&lt;div style=&quot;background-color: rgb(255, 255, 255); color: rgb(8, 8, 8); font-size: 11px;&quot;&gt;&lt;font style=&quot;font-size: 11px;&quot; face=&quot;Verdana&quot;&gt;/connectors&lt;/font&gt;&lt;/div&gt;&lt;div style=&quot;font-size: 11px;&quot;&gt;&lt;font style=&quot;font-size: 11px;&quot; face=&quot;Verdana&quot;&gt;/&lt;/font&gt;&lt;font style=&quot;font-size: 11px;&quot; face=&quot;Verdana&quot;&gt;discovery&lt;/font&gt;&lt;font style=&quot;font-size: 11px;&quot; face=&quot;Verdana&quot;&gt;/&lt;br&gt;&lt;/font&gt;&lt;div style=&quot;background-color: rgb(255, 255, 255); color: rgb(8, 8, 8);&quot;&gt;&lt;font style=&quot;font-size: 11px;&quot; face=&quot;Verdana&quot;&gt;{resourceId}&lt;/font&gt;&lt;/div&gt;&lt;/div&gt;" style="html=1;verticalAlign=bottom;endArrow=block;labelBackgroundColor=none;fontFamily=Verdana;fontSize=12;edgeStyle=elbowEdgeStyle;elbow=vertical;" parent="1" edge="1">
          <mxGeometry x="-0.007" y="-75" relative="1" as="geometry">
            <mxPoint x="159" y="185" as="sourcePoint" />
            <mxPoint x="302" y="185" as="targetPoint" />
            <mxPoint as="offset" />
          </mxGeometry>
        </mxCell>
        <mxCell id="7baba1c4bc27f4b0-14" value="&lt;div style=&quot;background-color: rgb(255, 255, 255); color: rgb(8, 8, 8); font-size: 11px;&quot;&gt;&lt;font style=&quot;font-size: 11px;&quot; face=&quot;Verdana&quot;&gt;deleteEndpoint&lt;/font&gt;&lt;font style=&quot;font-size: 11px;&quot; face=&quot;Verdana&quot;&gt;()&lt;/font&gt;&lt;/div&gt;" style="html=1;verticalAlign=bottom;endArrow=block;entryX=0;entryY=0;labelBackgroundColor=none;fontFamily=Verdana;fontSize=12;edgeStyle=elbowEdgeStyle;elbow=vertical;" parent="1" edge="1">
          <mxGeometry relative="1" as="geometry">
            <mxPoint x="315" y="211" as="sourcePoint" />
            <mxPoint x="445" y="211.00000000000023" as="targetPoint" />
          </mxGeometry>
        </mxCell>
        <mxCell id="7baba1c4bc27f4b0-10" value="" style="html=1;points=[];perimeter=orthogonalPerimeter;rounded=0;shadow=0;comic=0;labelBackgroundColor=none;strokeWidth=1;fontFamily=Verdana;fontSize=12;align=center;" parent="1" vertex="1">
          <mxGeometry x="305" y="180" width="10" height="220" as="geometry" />
        </mxCell>
        <mxCell id="_Sf8xZr1CFAmRgoJj1tJ-7" value="&lt;div style=&quot;background-color: rgb(255, 255, 255); color: rgb(8, 8, 8); font-size: 11px;&quot;&gt;&lt;font style=&quot;font-size: 11px;&quot; face=&quot;Verdana&quot;&gt;Endpoint&lt;/font&gt;&lt;/div&gt;&lt;div style=&quot;background-color: rgb(255, 255, 255); color: rgb(8, 8, 8); font-size: 11px;&quot;&gt;&lt;font style=&quot;font-size: 11px;&quot; face=&quot;Verdana&quot;&gt;Repository&lt;/font&gt;&lt;/div&gt;" style="shape=umlLifeline;perimeter=lifelinePerimeter;whiteSpace=wrap;html=1;container=1;collapsible=0;recursiveResize=0;outlineConnect=0;rounded=1;shadow=0;comic=0;labelBackgroundColor=none;strokeWidth=1;fontFamily=Verdana;fontSize=12;align=center;" vertex="1" parent="1">
          <mxGeometry x="660" y="80" width="100" height="270" as="geometry" />
        </mxCell>
        <mxCell id="_Sf8xZr1CFAmRgoJj1tJ-9" value="" style="html=1;points=[];perimeter=orthogonalPerimeter;rounded=0;shadow=0;comic=0;labelBackgroundColor=none;strokeWidth=1;fontFamily=Verdana;fontSize=12;align=center;" vertex="1" parent="1">
          <mxGeometry x="705" y="310" width="10" height="40" as="geometry" />
        </mxCell>
        <mxCell id="_Sf8xZr1CFAmRgoJj1tJ-13" value="&lt;div style=&quot;background-color: rgb(255, 255, 255); color: rgb(8, 8, 8); font-size: 11px;&quot;&gt;&lt;font style=&quot;font-size: 11px;&quot; face=&quot;Verdana&quot;&gt;validateUUID&lt;/font&gt;&lt;font style=&quot;font-size: 11px;&quot; face=&quot;Verdana&quot;&gt;()&lt;/font&gt;&lt;/div&gt;" style="html=1;verticalAlign=bottom;endArrow=block;labelBackgroundColor=none;fontFamily=Verdana;fontSize=12;edgeStyle=elbowEdgeStyle;elbow=vertical;" edge="1" parent="1">
          <mxGeometry relative="1" as="geometry">
            <mxPoint x="455" y="225" as="sourcePoint" />
            <Array as="points">
              <mxPoint x="460" y="225" />
            </Array>
            <mxPoint x="585" y="225" as="targetPoint" />
          </mxGeometry>
        </mxCell>
        <mxCell id="_Sf8xZr1CFAmRgoJj1tJ-17" value="&lt;div style=&quot;background-color: rgb(255, 255, 255); color: rgb(8, 8, 8);&quot;&gt;&lt;font style=&quot;font-size: 11px;&quot; face=&quot;Verdana&quot;&gt;findEndpointByResourceId()&lt;/font&gt;&lt;/div&gt;" style="html=1;verticalAlign=bottom;endArrow=block;labelBackgroundColor=none;fontFamily=Verdana;fontSize=12;edgeStyle=elbowEdgeStyle;elbow=vertical;" edge="1" parent="1" target="_Sf8xZr1CFAmRgoJj1tJ-9">
          <mxGeometry relative="1" as="geometry">
            <mxPoint x="455" y="311" as="sourcePoint" />
            <mxPoint x="680" y="311" as="targetPoint" />
            <mxPoint as="offset" />
          </mxGeometry>
        </mxCell>
        <mxCell id="_Sf8xZr1CFAmRgoJj1tJ-19" value="&lt;div style=&quot;background-color: rgb(255, 255, 255); color: rgb(8, 8, 8);&quot;&gt;&lt;font style=&quot;font-size: 11px;&quot; face=&quot;Verdana&quot;&gt;deleteById()&lt;/font&gt;&lt;/div&gt;" style="html=1;verticalAlign=bottom;endArrow=block;labelBackgroundColor=none;fontFamily=Verdana;fontSize=12;edgeStyle=elbowEdgeStyle;elbow=vertical;" edge="1" parent="1">
          <mxGeometry relative="1" as="geometry">
            <mxPoint x="456" y="347" as="sourcePoint" />
            <mxPoint x="706" y="347" as="targetPoint" />
            <mxPoint as="offset" />
          </mxGeometry>
        </mxCell>
      </root>
    </mxGraphModel>
  </diagram>
</mxfile>
